<svg xmlns="http://www.w3.org/2000/svg" width="24" height="24" viewBox="0 0 24 24" fill="none">
  <g clip-path="url(#clip0_16_5867)">
    <path d="M12 2C10.0222 2 8.08879 2.58649 6.4443 3.6853C4.79981 4.78412 3.51809 6.3459 2.76121 8.17316C2.00433 10.0004 1.8063 12.0111 2.19215 13.9509C2.578 15.8907 3.53041 17.6725 4.92894 19.0711C6.32746 20.4696 8.10929 21.422 10.0491 21.8078C11.9889 22.1937 13.9996 21.9957 15.8268 21.2388C17.6541 20.4819 19.2159 19.2002 20.3147 17.5557C21.4135 15.9112 22 13.9778 22 12C21.997 9.34875 20.9425 6.80694 19.0678 4.93222C17.1931 3.05751 14.6513 2.00298 12 2ZM12 20.4C10.3386 20.4 8.71459 19.9073 7.33321 18.9843C5.95184 18.0613 4.87519 16.7494 4.23942 15.2145C3.60364 13.6796 3.43729 11.9907 3.76141 10.3612C4.08552 8.7318 4.88555 7.23506 6.06031 6.0603C7.23507 4.88554 8.7318 4.08552 10.3612 3.7614C11.9907 3.43729 13.6796 3.60364 15.2145 4.23941C16.7494 4.87519 18.0613 5.95184 18.9843 7.33321C19.9073 8.71458 20.4 10.3386 20.4 12C20.3974 14.227 19.5116 16.3621 17.9369 17.9369C16.3621 19.5116 14.227 20.3974 12 20.4ZM12 8.4C12.3165 8.4 12.6258 8.30616 12.8889 8.13035C13.152 7.95454 13.3571 7.70465 13.4782 7.41229C13.5993 7.11993 13.631 6.79822 13.5693 6.48785C13.5075 6.17748 13.3551 5.89239 13.1314 5.66863C12.9076 5.44486 12.6225 5.29248 12.3121 5.23074C12.0018 5.16901 11.6801 5.20069 11.3877 5.32179C11.0953 5.44289 10.8455 5.64797 10.6697 5.91109C10.4938 6.17421 10.4 6.48355 10.4 6.8C10.4 7.22435 10.5686 7.63131 10.8686 7.93137C11.1687 8.23143 11.5757 8.4 12 8.4ZM16.2852 8.4082L12.0989 9.01724C12.0333 9.02676 11.9667 9.02676 11.9011 9.01724L7.71524 8.4082C7.50553 8.37826 7.29251 8.43271 7.12288 8.5596C6.95326 8.68648 6.84087 8.87546 6.81036 9.08508C6.77985 9.29471 6.83372 9.50787 6.96014 9.67785C7.08657 9.84782 7.27523 9.96072 7.48477 9.9918L10.0614 10.3667C10.1082 10.3735 10.151 10.3969 10.1819 10.4327C10.2128 10.4685 10.2299 10.5142 10.2299 10.5615V13.6484L10.1615 13.9641L8.50899 17.5969C8.40207 17.7801 8.37234 17.9984 8.42633 18.2036C8.48032 18.4087 8.61361 18.5841 8.79688 18.691C8.98014 18.7979 9.19838 18.8277 9.40357 18.7737C9.60876 18.7197 9.7841 18.5864 9.89102 18.4031L11.8066 14.4171C11.8247 14.3794 11.8531 14.3477 11.8885 14.3254C11.9239 14.3032 11.9649 14.2914 12.0067 14.2915C12.0485 14.2915 12.0894 14.3034 12.1248 14.3257C12.1601 14.3481 12.1884 14.3799 12.2065 14.4177L14.1086 18.4031C14.2159 18.5858 14.3912 18.7185 14.5961 18.7721C14.801 18.8258 15.0189 18.796 15.2019 18.6893C15.3849 18.5826 15.5181 18.4077 15.5724 18.2029C15.6267 17.9981 15.5975 17.7802 15.4914 17.5969L13.8126 13.9064L13.7701 13.7103V10.5615C13.7701 10.5142 13.7872 10.4685 13.8181 10.4327C13.849 10.397 13.8918 10.3735 13.9386 10.3667L16.5148 9.99183C16.7244 9.96082 16.913 9.84801 17.0395 9.67812C17.166 9.50823 17.2199 9.29512 17.1895 9.08552C17.1591 8.87592 17.0468 8.68692 16.8773 8.55996C16.7078 8.433 16.4949 8.3784 16.2852 8.4082Z" fill="#CCCCCC"/>
  </g>
  <defs>
    <clipPath id="clip0_16_5867">
      <rect width="24" height="24" fill="white"/>
    </clipPath>
  </defs>
</svg>