<svg width="17" height="16" viewBox="0 0 17 16" fill="none" xmlns="http://www.w3.org/2000/svg">
<path d="M10.6366 7.99999C10.6366 9.31999 9.56995 10.3867 8.24995 10.3867C6.92995 10.3867 5.86328 9.31999 5.86328 7.99999C5.86328 6.67999 6.92995 5.61333 8.24995 5.61333C9.56995 5.61333 10.6366 6.67999 10.6366 7.99999Z" stroke="white" stroke-width="1.5" stroke-linecap="round" stroke-linejoin="round"/>
<path d="M8.25002 13.5133C10.6034 13.5133 12.7967 12.1267 14.3234 9.72666C14.9234 8.78666 14.9234 7.20666 14.3234 6.26666C12.7967 3.86666 10.6034 2.48 8.25002 2.48C5.89668 2.48 3.70335 3.86666 2.17668 6.26666C1.57668 7.20666 1.57668 8.78666 2.17668 9.72666C3.70335 12.1267 5.89668 13.5133 8.25002 13.5133Z" stroke="white" stroke-width="1.5" stroke-linecap="round" stroke-linejoin="round"/>
</svg>
