<svg width="17" height="16" viewBox="0 0 17 16" fill="none" xmlns="http://www.w3.org/2000/svg">
<path d="M3.58333 6.66667C2.85 6.66667 2.25 7.26667 2.25 8.00001C2.25 8.73334 2.85 9.33334 3.58333 9.33334C4.31667 9.33334 4.91667 8.73334 4.91667 8.00001C4.91667 7.26667 4.31667 6.66667 3.58333 6.66667Z" stroke="#999999" stroke-width="1.5"/>
<path d="M12.9167 6.66667C12.1834 6.66667 11.5834 7.26667 11.5834 8.00001C11.5834 8.73334 12.1834 9.33334 12.9167 9.33334C13.65 9.33334 14.25 8.73334 14.25 8.00001C14.25 7.26667 13.65 6.66667 12.9167 6.66667Z" stroke="#999999" stroke-width="1.5"/>
<path d="M8.24996 6.66667C7.51663 6.66667 6.91663 7.26667 6.91663 8.00001C6.91663 8.73334 7.51663 9.33334 8.24996 9.33334C8.98329 9.33334 9.58329 8.73334 9.58329 8.00001C9.58329 7.26667 8.98329 6.66667 8.24996 6.66667Z" stroke="#999999" stroke-width="1.5"/>
</svg>
