<svg width="20" height="20" viewBox="0 0 20 20" fill="none" xmlns="http://www.w3.org/2000/svg">
<path d="M16.5834 11.25H3.41669C2.16669 11.25 1.66669 11.7833 1.66669 13.1083V16.475C1.66669 17.8 2.16669 18.3333 3.41669 18.3333H16.5834C17.8334 18.3333 18.3334 17.8 18.3334 16.475V13.1083C18.3334 11.7833 17.8334 11.25 16.5834 11.25Z" stroke="white" stroke-width="1.5" stroke-linecap="round" stroke-linejoin="round"/>
<path d="M16.5834 1.66666H3.41669C2.16669 1.66666 1.66669 2.19999 1.66669 3.52499V6.89166C1.66669 8.21666 2.16669 8.74999 3.41669 8.74999H16.5834C17.8334 8.74999 18.3334 8.21666 18.3334 6.89166V3.52499C18.3334 2.19999 17.8334 1.66666 16.5834 1.66666Z" stroke="white" stroke-width="1.5" stroke-linecap="round" stroke-linejoin="round"/>
</svg>
